HIERARCHY
ROOT Hips
{
	OFFSET	0.00	0.00	0.00
	CHANNELS 6 Xposition Yposition Zposition Zrotation Xrotation Yrotation
	JOINT Spine
	{
		OFFSET	 0.00	0.01	 0.00
		CHANNELS 3 Zrotation Xrotation Yrotation
		JOINT Spine1
		{
			OFFSET	 0.00	 2.45913012437421	 0.00
			CHANNELS 3 Zrotation Xrotation Yrotation
            JOINT Neck
            {
                OFFSET	 0.00	 2.48462964506057	 0.00
                CHANNELS 3 Zrotation Xrotation Yrotation
                JOINT Head
                {
                    OFFSET	 0.00	 0.927524780924562	 0.00
                    CHANNELS 3 Zrotation Xrotation Yrotation
                    End Site 
                    {
                        OFFSET	 0.00	 1.14999962169752	 0.00
                    }
                }
            }
			JOINT LeftShoulder
			{
				OFFSET	 0.00	 2.48462964506057	 0.00
				CHANNELS 3 Zrotation Xrotation Yrotation
				JOINT LeftUpArm
				{
					OFFSET	 0.00	 1.24881979654096	 0.00
					CHANNELS 3 Zrotation Xrotation Yrotation
					JOINT LeftForeArm
					{
						OFFSET	 0.00	2.59758046908119	 0.00
						CHANNELS 3 Zrotation Xrotation Yrotation
						JOINT LeftHand
						{
							OFFSET	 0.00	2.45542024364365	 0.00
							CHANNELS 3 Zrotation Xrotation Yrotation
							JOINT LeftHandThumb 
							{
								OFFSET	 0.00	0.00	 0.00
								CHANNELS 3 Zrotation Xrotation Yrotation
								End Site
								{
									OFFSET	 0.00	0.00	1.00000003353624
								}
							}
							JOINT L_Wrist_End 
							{
								OFFSET	 0.00	0.99999967115358	 0.00
								CHANNELS 3 Zrotation Xrotation Yrotation
								End Site 
								{
									OFFSET	 0.00	 0.00	 0.00
								}
							}
						}
					}
				}
			}
			JOINT RightShoulder
			{
				OFFSET	 0.00	 2.48462964506057	 0.00
				CHANNELS 3 Zrotation Xrotation Yrotation
				JOINT RightUpArm
				{
					OFFSET	 0.00	 1.24881979654096	 0.00
					CHANNELS 3 Zrotation Xrotation Yrotation
					JOINT RightForeArm
					{
						OFFSET	 0.00	2.59758046908119	 0.00
						CHANNELS 3 Zrotation Xrotation Yrotation
						JOINT RightHand
						{
							OFFSET	 0.00	2.45542024364365	 0.00
							CHANNELS 3 Zrotation Xrotation Yrotation
							JOINT RightHandThumb 
							{
								OFFSET	 0.00	0.00	 0.00
								CHANNELS 3 Zrotation Xrotation Yrotation
								End Site
								{
									OFFSET	 0.00	0.00	1.00000003353624
								}
							}
							JOINT R_Wrist_End 
							{
								OFFSET	 0.00	0.99999967115358	 0.00
								CHANNELS 3 Zrotation Xrotation Yrotation
								End Site 
								{
									OFFSET	 0.00	 0.00	 0.00
								}
							}
						}
					}
				}
			}
		}
	}
	JOINT LeftUpLeg
	{
		OFFSET	 1.2719394002717	 0.00	 0.00
		CHANNELS 3 Zrotation Xrotation Yrotation
		JOINT LeftLowLeg
		{
			OFFSET	 0.00	-4.3429100912261	 0.00
			CHANNELS 3 Zrotation Xrotation Yrotation
			JOINT LeftFoot
			{
				OFFSET	 0.00	-4.48767017425826	 0.00
				CHANNELS 3 Zrotation Xrotation Yrotation
				JOINT LeftToeBase
                {
                    OFFSET	 0.00	0.00	 1.51507020887566
                    CHANNELS 3 Zrotation Xrotation Yrotation
                    End Site 
                    {
                        OFFSET	 0.00	0.00	 0.75000010571191
                    }
                }
			}
		}
	}
	JOINT RightUpLeg
	{
		OFFSET	 -1.2719393604653	 0.00	 0.00
		CHANNELS 3 Zrotation Xrotation Yrotation
		JOINT RightLowLeg
		{
			OFFSET	 0.00	-4.3429100912261	 0.00
			CHANNELS 3 Zrotation Xrotation Yrotation
			JOINT RightFoot
			{
				OFFSET	 0.00	-4.48767017425826	 0.00
				CHANNELS 3 Zrotation Xrotation Yrotation
				JOINT RightToeBase
                {
                    OFFSET	 0.00	0.00	 1.51507020887566
                    CHANNELS 3 Zrotation Xrotation Yrotation
                    End Site 
                    {
                        OFFSET	 0.00	0.00	 0.749999965609858
                    }
                }   
			}
		}
	}
}
MOTION 
Frames:	18 
Frame Time: 0.02 
 0.9415579986572266 12.264200439453125 10.470400390625 -75.4926 86.376 48.3243 3.89228 -20.5708 1.38817 3.24313 39.2979 -5.68982 -10.1262 26.353 10.9612 28.8003 -67.777 29.283 -118.0654 1.25527 -13.1711 -35.024 -7.6769 41.7796 0.0 23.1192 0.0 0.378347 -9.15392 9.09308 0.0 0.0 0.0 0.0 0.0 0.0 119.0643 1.4632 3.24043 38.2423 5.47865 -25.178 0.0 23.6732 0.0 -6.21631 -0.30848 8.38668 0.0 0.0 0.0 0.0 0.0 0.0 7.41095 5.67111 19.3193 0.0 6.35569 0.0 -8.69113 8.452459 8.93852 0.0 -12.12733 0.0 10.1631 7.06161 9.71467 0.0 7.34622 0.0 15.619 7.20706 -22.3151 0.0 -14.538945 0.0 
  0.9484269714355469 12.25199951171875 10.470400390625 -75.9071 86.3632 48.5972 4.13362 -20.6739 1.70853 2.96568 39.2955 -5.58389 -9.85036 26.4219 10.7438 28.7949 -67.6878 29.3382 -118.031204 1.04157 -13.1264 -34.7404 -7.74477 41.8692 0.0 23.7995 0.0 1.15246 -8.87417 7.74625 0.0 0.0 0.0 0.0 0.0 0.0 119.1072 1.41079 3.18901 38.5474 5.10394 -24.9326 0.0 23.5325 0.0 -5.99528 -0.62433 8.46148 0.0 0.0 0.0 0.0 0.0 0.0 7.34379 5.77244 19.6572 0.0 6.28937 0.0 -8.59789 8.427959 8.82782 0.0 -12.00891 0.0 10.1028 7.08222 9.58441 0.0 7.37451 0.0 15.567 7.24282 -22.1089 0.0 -14.589655 0.0 
  0.9579720306396484 12.2427001953125 10.47010009765625 -75.9137 86.3459 48.5233 4.49651 -20.7081 2.14985 2.48552 39.2996 -5.5546 -9.57059 26.5047 10.6047 29.1197 -67.647 29.6888 -117.867905 0.883442 -13.2668 -34.5036 -7.83185 41.7711 0.0 24.469 0.0 2.32987 -8.43166 6.55733 0.0 0.0 0.0 0.0 0.0 0.0 119.3155 1.3449 3.2551 38.7825 4.80204 -24.9087 0.0 23.3351 0.0 -5.69788 -0.855803 8.48426 0.0 0.0 0.0 0.0 0.0 0.0 7.24938 5.83812 19.8497 0.0 6.25392 0.0 -8.44866 8.37792 8.86156 0.0 -11.864429 0.0 10.0599 7.03465 9.642 0.0 7.55125 0.0 15.559 7.13026 -22.1132 0.0 -14.599317 0.0 
  0.9657080078125 12.233299560546875 10.4693994140625 -76.3594 86.3252 48.8284 4.84412 -20.7864 2.56421 2.06865 39.3149 -5.50758 -9.19513 26.6399 10.3094 29.2859 -67.6361 30.0401 -117.7139 0.764537 -13.2992 -34.3741 -7.81078 41.4051 0.0 25.0705 0.0 3.74904 -7.95273 5.02986 0.0 0.0 0.0 0.0 0.0 0.0 119.4494 1.30904 3.24041 39.02 4.59473 -24.8395 0.0 23.1534 0.0 -5.35754 -0.925687 8.30115 0.0 0.0 0.0 0.0 0.0 0.0 7.18714 5.89847 20.1001 0.0 6.24525 0.0 -8.29645 8.29567 8.86034 0.0 -11.74215 0.0 10.0438 6.95681 9.75369 0.0 7.76722 0.0 15.5376 7.02143 -22.114 0.0 -14.690576 0.0 
  0.9738050079345704 12.223699951171875 10.468800048828125 -76.2896 86.2876 48.6819 5.21257 -20.8476 2.97992 1.61919 39.3631 -5.51194 -8.96078 26.6944 10.2003 29.4348 -67.5311 30.2556 -117.5468 0.657984 -13.3593 -34.2939 -7.64849 40.9018 0.0 25.6044 0.0 5.24098 -7.55035 3.46028 0.0 0.0 0.0 0.0 0.0 0.0 119.6923 1.28507 3.17638 39.11 4.50739 -24.9564 0.0 22.9662 0.0 -5.13362 -0.922726 8.19136 0.0 0.0 0.0 0.0 0.0 0.0 7.13191 5.95777 20.1045 0.0 6.27829 0.0 -8.25788 8.19128 8.96894 0.0 -11.46755 0.0 10.013 6.89108 9.65422 0.0 8.02333 0.0 15.495 6.9351397 -21.9509 0.0 -14.895635 0.0 
  0.9797219848632812 12.217099609375 10.46719970703125 -75.7872 86.2628 48.0184 5.35494 -20.8299 3.20868 1.46958 39.3367 -5.37346 -8.82527 26.7209 10.0497 29.3514 -67.4967 30.1322 -117.5823 0.654822 -13.3321 -34.2427 -7.35442 40.1672 0.0 26.1029 0.0 6.55263 -7.20749 2.12155 0.0 0.0 0.0 0.0 0.0 0.0 119.7819 1.24243 3.13505 39.1441 4.42302 -24.8924 0.0 22.9787 0.0 -5.17468 -0.830357 7.79678 0.0 0.0 0.0 0.0 0.0 0.0 7.06962 6.09119 20.2136 0.0 6.22677 0.0 -8.30548 8.14102 8.9577 0.0 -11.36602 0.0 9.99353 6.7314 9.73393 0.0 8.48997 0.0 15.4453 6.74813 -21.8967 0.0 -15.509461 0.0 
  0.9838269805908203 12.212099609375 10.46530029296875 -74.9515 86.2618 47.022 5.34028 -20.8757 3.25664 1.49296 39.4065 -5.25172 -8.92324 26.6003 10.1521 29.0015 -67.2369 29.4769 -117.7185 0.669722 -13.2894 -34.1696 -6.9293 39.4077 0.0 26.671 0.0 8.19637 -6.15805 1.76101 0.0 0.0 0.0 0.0 0.0 0.0 119.8026 1.36119 3.01008 39.037 4.29031 -24.8128 0.0 23.5093 0.0 -6.01996 -0.630184 7.97114 0.0 0.0 0.0 0.0 0.0 0.0 6.99195 6.2456 20.2401 0.0 6.14009 0.0 -8.45099 8.11051 8.94856 0.0 -11.53707 0.0 9.9683 6.51713 9.77899 0.0 9.07458 0.0 15.3452 6.49605 -21.8395 0.0 -16.16176 0.0 
  0.9871890258789062 12.2081005859375 10.463199462890625 -73.5407 86.2838 45.4811 5.28549 -20.9551 3.27479 1.43883 39.5431 -5.19073 -8.85414 26.4398 10.2307 28.8063 -66.8086 28.8056 -117.8082 0.670056 -13.2939 -34.0691 -6.46766 38.4337 0.0 27.6773 0.0 10.3693 -4.60682 2.22695 0.0 0.0 0.0 0.0 0.0 0.0 119.8297 1.55036 2.86023 38.849 4.181 -24.9517 0.0 24.581 0.0 -7.57211 -0.0606118 8.50696 0.0 0.0 0.0 0.0 0.0 0.0 6.85824 6.43088 20.0447 0.0 5.97742 0.0 -8.64229 8.09628 9.09263 0.0 -11.482861 0.0 9.91127 6.24751 9.70644 0.0 9.77257 0.0 15.2286 6.22416 -21.6648 0.0 -16.62106 0.0 
  0.987864990234375 12.2031005859375 10.46050048828125 -71.6233 86.2824 43.4802 5.23921 -21.0404 3.3484 1.29199 39.6346 -5.0994 -8.2166 26.5595 9.85733 28.7236 -66.2021 28.2969 -117.9122 0.644101 -13.0054 -33.8108 -5.69458 37.6449 0.0 29.2695 0.0 13.9756 -2.4533 3.26656 0.0 0.0 0.0 0.0 0.0 0.0 119.8862 1.54964 2.76365 38.5849 4.20083 -25.0116 0.0 26.3852 0.0 -9.22643 -0.0418014 10.0389 0.0 0.0 0.0 0.0 0.0 0.0 6.74783 6.62071 20.0541 0.0 5.88858 0.0 -8.73836 8.08703 9.05233 0.0 -11.48594 0.0 9.86218 6.02487 9.57022 0.0 10.4621 0.0 15.1173 5.9593897 -21.4819 0.0 -17.04554 0.0 
  0.985988998413086 12.196500244140625 10.45780029296875 -69.6292 86.2485 41.523 5.10884 -21.1254 3.28278 1.24763 39.5487 -5.07426 -7.57519 26.994 9.55633 28.9678 -65.4989 27.8998 -118.0372 0.66813 -12.7116 -33.4168 -4.98998 37.3701 0.0 31.6556 0.0 18.0044 -0.558536 1.85356 0.0 0.0 0.0 0.0 0.0 0.0 119.842896 1.35113 2.82674 38.2873 4.3192 -25.3529 0.0 28.702 0.0 -10.9659 0.793266 12.1463 0.0 0.0 0.0 0.0 0.0 0.0 6.67224 6.79472 19.9592 0.0 5.84395 0.0 -8.82949 8.04217 9.04076 0.0 -11.43331 0.0 9.8447 5.91458 9.41354 0.0 10.9997 0.0 15.0043 5.72355 -21.4228 0.0 -17.3794 0.0 
  0.9818450164794922 12.188599853515624 10.4552001953125 -67.8362 86.195 39.8716 4.91441 -21.2046 3.10648 1.25743 39.2171 -5.11824 -6.53749 28.1042 8.84584 29.4515 -64.8682 28.0428 -118.1644 0.609567 -12.473 -33.0271 -4.18262 37.1936 0.0 34.5341 0.0 21.6248 0.530753 0.526545 0.0 0.0 0.0 0.0 0.0 0.0 119.7565 1.11365 2.91015 37.9041 4.46942 -25.5709 0.0 31.592 0.0 -12.7493 1.3428 13.0421 0.0 0.0 0.0 0.0 0.0 0.0 6.63438 6.94788 19.7446 0.0 5.81923 0.0 -8.87423 7.98559 9.05293 0.0 -11.3825 0.0 9.85969 5.86831 9.27515 0.0 11.4451 0.0 14.9398 5.4798203 -21.4352 0.0 -17.63026 0.0 
  0.9765529632568359 12.183399658203125 10.45260009765625 -65.2878 86.1015 37.6416 4.56259 -21.2209 2.71215 1.42907 38.7213 -5.24524 -5.49157 29.5812 8.09637 29.9333 -64.1768 28.1492 -118.2926 0.620139 -12.4435 -32.749 -3.39972 36.7603 0.0 37.712 0.0 24.59 1.46219 -0.17032 0.0 0.0 0.0 0.0 0.0 0.0 119.6167 0.849496 3.0606 37.3775 4.76465 -25.7779 0.0 34.9292 0.0 -14.9011 1.86894 14.6462 0.0 0.0 0.0 0.0 0.0 0.0 6.61693 7.05577 19.2726 0.0 5.88954 0.0 -8.92687 7.90614 9.17286 0.0 -11.32922 0.0 9.88817 5.91108 9.1082 0.0 11.8053 0.0 14.9423 5.2253704 -21.567 0.0 -17.86717 0.0 
  0.9653739929199219 12.168900146484376 10.450699462890626 -63.6594 86.0195 36.0075 4.28621 -21.4282 2.4127 1.6768 38.16 -5.21511 -4.26315 31.4977 6.98489 30.1161 -63.5534 28.1824 -118.5357 0.671211 -12.4058 -32.5256 -2.55819 35.9124 0.0 41.2643 0.0 26.6592 2.60615 -0.00347867 0.0 0.0 0.0 0.0 0.0 0.0 119.4285 0.541054 3.0573 36.6121 5.37498 -26.1134 0.0 38.563 0.0 -16.7887 3.85393 12.5923 0.0 0.0 0.0 0.0 0.0 0.0 6.57663 7.38464 19.4468 0.0 5.70172 0.0 -8.94931 7.9576 8.99109 0.0 -11.31739 0.0 9.90005 6.02413 9.15003 0.0 12.0602 0.0 14.8863 5.0717297 -21.6167 0.0 -17.94445 0.0 
  0.9520420074462891 12.15760009765625 10.449200439453126 -61.2763 85.8309 33.5986 4.03861 -21.6159 2.12091 1.85458 37.7976 -5.266 -2.90638 33.2815 5.7716 30.0251 -62.8295 28.2385 -118.701904 0.60252 -12.5729 -32.3452 -1.45027 35.186 0.0 45.0665 0.0 28.7801 4.67108 0.231227 0.0 0.0 0.0 0.0 0.0 0.0 119.2343 0.353281 3.23681 35.853 6.2754 -26.6755 0.0 42.453 0.0 -19.3048 5.50734 11.88 0.0 0.0 0.0 0.0 0.0 0.0 6.57352 7.79402 19.5741 0.0 5.58364 0.0 -9.01669 8.00541 8.84363 0.0 -11.35197 0.0 9.94941 6.26313 9.33473 0.0 12.2803 0.0 14.925 4.913 -21.7892 0.0 -17.97837 0.0 
  0.9374720001220703 12.14739990234375 10.446199951171875 -59.1861 85.6534 31.4799 3.8275 -21.8176 1.85479 2.02047 37.4584 -5.32265 -2.00048 34.7173 5.02747 29.6596 -62.0333 28.0415 -118.9061 0.653664 -12.7152 -32.0167 -0.232297 34.4458 0.0 49.5641 0.0 30.5637 6.66627 -0.481197 0.0 0.0 0.0 0.0 0.0 0.0 119.075195 0.223458 3.49459 35.0327 7.4187 -27.1887 0.0 46.6263 0.0 -22.1002 7.27516 11.8241 0.0 0.0 0.0 0.0 0.0 0.0 6.59702 8.11048 19.5817 0.0 5.63146 0.0 -9.08982 7.92701 8.792 0.0 -11.384541 0.0 9.98231 6.48862 9.34299 0.0 12.4866 0.0 14.9252 4.7475996 -21.7585 0.0 -17.924469 0.0 
  0.9202200317382813 12.137900390625 10.44280029296875 -56.543 85.3643 28.8753 3.54395 -21.9858 1.43786 2.30859 37.3399 -5.49689 -1.25282 35.5407 4.37825 28.8641 -61.1467 27.5132 -119.1326 0.669654 -12.7826 -31.6671 1.33009 33.6242 0.0 54.5147 0.0 33.717 8.2503 1.8723 0.0 0.0 0.0 0.0 0.0 0.0 118.7847 0.266976 3.72584 34.2786 8.77872 -27.1578 0.0 50.9384 0.0 -23.989 10.0995 12.2535 0.0 0.0 0.0 0.0 0.0 0.0 6.67755 8.41689 19.2644 0.0 5.9237 0.0 -9.23505 7.71352 8.94999 0.0 -11.308929 0.0 10.0404 6.85282 9.22305 0.0 12.6517 0.0 14.8293 4.6123 -21.7542 0.0 -17.77381 0.0 
  0.902113037109375 12.130799560546874 10.438199462890625 -54.4051 85.0843 26.6119 3.43345 -22.0919 1.19826 2.45856 37.1217 -5.65341 -0.849789 36.2775 4.05629 28.2294 -60.4326 27.0347 -119.2376 0.888396 -12.8735 -31.3048 2.84181 32.5562 0.0 59.7196 0.0 35.8516 10.224 2.01486 0.0 0.0 0.0 0.0 0.0 0.0 118.554596 0.380192 3.78258 33.6005 10.5167 -26.9711 0.0 55.4422 0.0 -27.1509 11.1158 10.3285 0.0 0.0 0.0 0.0 0.0 0.0 6.7901 8.54752 18.7332 0.0 6.60654 0.0 -9.46358 7.27414 9.42779 0.0 -11.22794 0.0 10.094 7.14368 9.14903 0.0 12.8934 0.0 14.7847 4.4877996 -21.6165 0.0 -17.63691 0.0 
  0.8830760192871093 12.124300537109375 10.433499755859375 -53.0389 84.8755 24.9795 3.6213 -22.2547 1.30539 2.25612 36.8873 -5.78744 -0.699437 36.8551 4.07982 27.982 -59.7896 26.6861 -119.112305 1.12725 -12.847 -31.0476 4.68866 31.2775 0.0 65.052 0.0 37.9137 11.7766 3.70779 0.0 0.0 0.0 0.0 0.0 0.0 118.4411 0.706257 3.68582 33.0174 12.2942 -26.2003 0.0 59.7783 0.0 -29.4784 13.5817 10.1499 0.0 0.0 0.0 0.0 0.0 0.0 6.93837 8.41457 18.0517 0.0 7.71451 0.0 -9.76717 6.65341 10.1634 0.0 -11.22904 0.0 10.1538 7.31856 9.31738 0.0 13.192 0.0 14.8109 4.3297005 -21.5209 0.0 -17.34599 0.0 
